<svg t="1653128742682" class="icon" viewBox="0 0 1024 1024" version="1.1" xmlns="http://www.w3.org/2000/svg" p-id="10731" width="128" height="128">
    <path d="M312.664485 307.584525l0.917215-0.917215 162.593998-228.139594c9.771868-9.383815 22.824543-14.53433 36.829711-14.534331s27.057843 5.150515 36.900265 14.604886l160.830124 226.340441 0.917215 0.917215c9.983533 10.089365 15.486823 23.494815 15.5221 37.817481 0 14.322665-5.468013 27.728115-15.451545 37.782202-9.912978 10.01881-23.353705 15.5221-37.817481 15.5221s-27.904503-5.50329-37.81748-15.5221l-70.660833-70.27278v319.473042c0 29.103938-24.376753 53.692355-53.19847 53.692356-28.821718 0-53.19847-24.588418-53.198471-53.692356V312.840872l-70.766665 70.413891c-9.8777 9.948255-23.212595 15.38099-37.711648 15.38099-14.25211 0-27.551728-5.36218-37.429428-15.09877-10.230475-9.807145-15.910153-22.85982-16.192372-36.900265-0.317498-14.640163 5.291625-28.50422 15.733765-39.052193z m1.869707 420.40197h394.931616c20.849003 0 38.417198 17.77986 38.417197 38.805251s-17.603473 38.80525-38.417197 38.80525H314.534192c-21.1665 0-38.417198-17.391808-38.417197-38.80525-0.035278-21.02539 17.568195-38.80525 38.417197-38.805251z m578.304062 81.949633c0 82.725738-66.674475 150.070486-148.624109 150.070487H279.785855c-81.949633 0-148.624109-67.30947-148.624109-150.070487V423.859166c0-27.65756 22.15427-50.023495 49.52961-50.023496 27.37534 0 49.52961 22.365935 49.529611 50.023496v386.076962c0 27.587005 22.224825 50.023495 49.52961 50.023496h464.428291c27.340063 0 49.52961-22.43649 49.52961-50.023496V419.131981c0-27.65756 22.15427-50.023495 49.529611-50.023496 27.37534 0 49.52961 22.365935 49.52961 50.023496v390.804147z" fill="#ffffff" p-id="10732"></path>
</svg>