<svg t="1653128870528" class="icon" viewBox="0 0 1024 1024" version="1.1" xmlns="http://www.w3.org/2000/svg" p-id="3048" width="64" height="64">
    <path d="M640.1 352h-256c-17.7 0-32-14.3-32-32V95.8c0-17.7 14.3-32 32-32h256c17.7 0 32 14.3 32 32V320c0 17.7-14.3 32-32 32z m-224-64h192V127.8h-192V288zM352.4 959.5h-256c-17.7 0-32-14.3-32-32V703.3c0-17.7 14.3-32 32-32h256c17.7 0 32 14.3 32 32v224.2c0 17.7-14.3 32-32 32z m-224-64h192V735.3h-192v160.2zM926 959.5H670c-17.7 0-32-14.3-32-32V703.3c0-17.7 14.3-32 32-32h256c17.7 0 32 14.3 32 32v224.2c0 17.7-14.4 32-32 32z m-224.1-64h192V735.3h-192v160.2z" fill="#ffffff" p-id="3049"></path>
    <path d="M512 543.6c-17.7 0-32-14.3-32-32V352c0-17.7 14.3-32 32-32s32 14.3 32 32v159.6c0 17.7-14.3 32-32 32z" fill="#ffffff" p-id="3050"></path>
    <path d="M800.2 542.1H224.4c-17.7 0-32-14.3-32-32s14.3-32 32-32h575.8c17.7 0 32 14.3 32 32s-14.4 32-32 32z" fill="#ffffff" p-id="3051"></path>
    <path d="M224.4 704.3c-17.7 0-32-14.3-32-32V511.6c0-17.7 14.3-32 32-32s32 14.3 32 32v160.7c0 17.7-14.3 32-32 32zM800.2 704c-17.7 0-32-14.3-32-32V511.3c0-17.7 14.3-32 32-32s32 14.3 32 32V672c0 17.7-14.4 32-32 32z" fill="#ffffff" p-id="3052"></path>
</svg>